<svg xmlns="http://www.w3.org/2000/svg" version="1.1" xmlns:xlink="http://www.w3.org/1999/xlink" xmlns:svgjs="http://svgjs.dev/svgjs" width="1800" height="400" preserveAspectRatio="none" viewBox="0 0 1800 400"><g mask="url(&quot;#SvgjsMask1281&quot;)" fill="none"><path d="M -807.4593128099749,310 C -717.46,283.6 -537.46,179.2 -357.4593128099749,178 C -177.46,176.8 -87.46,317.8 92.5406871900251,304 C 272.54,290.2 362.54,108.6 542.5406871900251,109 C 722.54,109.4 812.54,292 992.5406871900251,306 C 1172.54,320 1281.05,180.8 1442.540687190025,179 C 1604.03,177.2 1728.51,273.4 1800,297" stroke="rgba(20, 21, 21, 0.63)" stroke-width="2"></path><path d="M -538.1123100813334,145 C -448.11,159.4 -268.11,228 -88.11231008133336,217 C 91.89,206 181.89,88.6 361.88768991866664,90 C 541.89,91.4 631.89,217.8 811.8876899186666,224 C 991.89,230.2 1081.89,106.8 1261.8876899186666,121 C 1441.89,135.2 1604.27,283.8 1711.8876899186666,295 C 1819.51,306.2 1782.38,200.6 1800,177" stroke="rgba(20, 21, 21, 0.63)" stroke-width="2"></path><path d="M -373.37675614871773,267 C -283.38,232.2 -103.38,86.6 76.62324385128224,93 C 256.62,99.4 346.62,295.4 526.6232438512823,299 C 706.62,302.6 796.62,129.8 976.6232438512823,111 C 1156.62,92.2 1246.62,187.6 1426.6232438512823,205 C 1606.62,222.4 1801.95,181.8 1876.6232438512823,198 C 1951.3,214.2 1815.32,268.4 1800,286" stroke="rgba(20, 21, 21, 0.63)" stroke-width="2"></path><path d="M -791.5045162697348,249 C -701.5,232.6 -521.5,160.6 -341.50451626973484,167 C -161.5,173.4 -71.5,277.6 108.49548373026516,281 C 288.5,284.4 378.5,186.6 558.4954837302652,184 C 738.5,181.4 828.5,278.8 1008.4954837302652,268 C 1188.5,257.2 1300.19,141.4 1458.4954837302653,130 C 1616.8,118.6 1731.7,194.8 1800,211" stroke="rgba(20, 21, 21, 0.63)" stroke-width="2"></path><path d="M -786.1327039677739,220 C -696.13,198.4 -516.13,95.6 -336.13270396777386,112 C -156.13,128.4 -66.13,298.6 113.86729603222614,302 C 293.87,305.4 383.87,142 563.8672960322261,129 C 743.87,116 833.87,241.8 1013.8672960322261,237 C 1193.87,232.2 1306.64,104.4 1463.867296032226,105 C 1621.09,105.6 1732.77,213 1800,240" stroke="rgba(20, 21, 21, 0.63)" stroke-width="2"></path><path d="M -367.82741178782805,226 C -277.83,212.4 -97.83,152.4 82.17258821217197,158 C 262.17,163.6 352.17,251 532.172588212172,254 C 712.17,257 802.17,169.4 982.172588212172,173 C 1162.17,176.6 1252.17,286.2 1432.172588212172,272 C 1612.17,257.8 1808.61,102.4 1882.172588212172,102 C 1955.74,101.6 1816.43,236.4 1800,270" stroke="rgba(20, 21, 21, 0.63)" stroke-width="2"></path><path d="M -597.8387290289401,289 C -507.84,256.8 -327.84,133.6 -147.83872902894007,128 C 32.16,122.4 122.16,259.4 302.16127097105993,261 C 482.16,262.6 572.16,133.8 752.1612709710599,136 C 932.16,138.2 1022.16,260.6 1202.1612709710598,272 C 1382.16,283.4 1532.59,198.8 1652.1612709710598,193 C 1771.73,187.2 1770.43,233 1800,243" stroke="rgba(20, 21, 21, 0.63)" stroke-width="2"></path></g><defs><mask id="SvgjsMask1281"><rect width="1800" height="400" fill="#ffffff"></rect></mask></defs></svg>