<svg xmlns="http://www.w3.org/2000/svg" version="1.1" xmlns:xlink="http://www.w3.org/1999/xlink" xmlns:svgjs="http://svgjs.dev/svgjs" width="1440" height="560" preserveAspectRatio="none" viewBox="0 0 1440 560"><g mask="url(&quot;#SvgjsMask1034&quot;)" fill="none"><path d="M -702.6615022172964,496 C -630.66,435.2 -486.66,221.4 -342.66150221729646,192 C -198.66,162.6 -126.66,356.6 17.33849778270354,349 C 161.34,341.4 233.34,146.2 377.33849778270354,154 C 521.34,161.8 593.34,398.8 737.3384977827036,388 C 881.34,377.2 956.81,111.8 1097.3384977827036,100 C 1237.87,88.2 1371.47,283.2 1440,329" stroke="rgba(80, 84, 86, 0.29)" stroke-width="2"></path><path d="M -288.87947572366625,144 C -216.88,201.2 -72.88,418.4 71.12052427633375,430 C 215.12,441.6 287.12,225.8 431.12052427633375,202 C 575.12,178.2 647.12,340 791.1205242763338,311 C 935.12,282 1007.12,62.8 1151.1205242763338,57 C 1295.12,51.2 1453.34,247.2 1511.1205242763338,282 C 1568.9,316.8 1454.22,241.2 1440,231" stroke="rgba(80, 84, 86, 0.29)" stroke-width="2"></path><path d="M -521.2897877189145,355 C -449.29,324.4 -305.29,201.8 -161.28978771891443,202 C -17.29,202.2 54.71,367.2 198.71021228108557,356 C 342.71,344.8 414.71,148.8 558.7102122810855,146 C 702.71,143.2 774.71,357 918.7102122810855,342 C 1062.71,327 1174.45,66.6 1278.7102122810857,71 C 1382.97,75.4 1407.74,305.4 1440,364" stroke="rgba(80, 84, 86, 0.29)" stroke-width="2"></path><path d="M -658.3797150372482,133 C -586.38,181.4 -442.38,351.2 -298.3797150372481,375 C -154.38,398.8 -82.38,229.6 61.620284962751896,252 C 205.62,274.4 277.62,486.8 421.6202849627519,487 C 565.62,487.2 637.62,278.6 781.6202849627518,253 C 925.62,227.4 1009.94,357.4 1141.6202849627518,359 C 1273.3,360.6 1380.32,280.6 1440,261" stroke="rgba(80, 84, 86, 0.29)" stroke-width="2"></path></g><defs><mask id="SvgjsMask1034"><rect width="1440" height="560" fill="#ffffff"></rect></mask></defs></svg>